<?xml version="1.0" encoding="UTF-8"?>
<svg width="217px" height="150px" viewBox="0 0 217 150" version="1.1" xmlns="http://www.w3.org/2000/svg" xmlns:xlink="http://www.w3.org/1999/xlink">
    <!-- Generator: Sketch 50 (54983) - http://www.bohemiancoding.com/sketch -->
    <title>simbolo-agrotis</title>
    <desc>Created with Sketch.</desc>
    <defs></defs>
    <g id="Page-1" stroke="none" stroke-width="1" fill="none" fill-rule="evenodd">
        <g id="simbolo-agrotis" transform="translate(-1.000000, 0.000000)" fill="#333E48">
            <path d="M189.794,97.042 L131,97.035 C129.104,97.035 127.567,97.887 126.902,99.139 C126.875,99.197 126.851,99.259 126.825,99.318 L119.206,115.47 L118.893,116.145 C118.179,117.291 116.719,118.061 114.918,118.061 L18.249,118.04 L28.443,99.66 C28.474,99.579 28.502,99.5 28.547,99.431 C29.204,98.173 30.742,97.318 32.646,97.318 L98.598,96.965 C98.744,96.982 98.896,96.982 99.044,96.982 C99.195,96.982 99.344,96.982 99.487,96.974 C101.172,96.847 102.504,96.046 103.118,94.905 C103.13,94.893 103.139,94.884 103.137,94.88 L103.274,94.573 C103.284,94.559 103.291,94.536 103.293,94.52 L110.8,78.597 C110.837,78.52 110.873,78.437 110.915,78.36 C111.575,77.105 113.106,76.256 115.005,76.256 L174.818,76.263 C176.778,76.263 178.569,77.093 179.749,78.655 C179.767,78.68 179.785,78.702 179.799,78.722 L189.794,97.042 Z M218.028,149.245 L196.647,109.587 L196.375,109.23 C196.375,109.225 196.372,109.216 196.37,109.211 C195.336,107.965 193.561,107.125 191.67,107.125 L138.692,107.115 C136.827,107.115 135.317,107.932 134.633,109.157 L134.437,109.575 L126.79,125.813 C126.754,125.892 126.715,125.959 126.688,126.034 C126.019,127.292 124.488,128.134 122.589,128.134 L15.464,128.123 C13.946,128.123 12.424,128.601 11.346,130.471 L0.985,149.205 L218.028,149.245 Z M152.711,29.316 L88.733,29.311 C87.103,29.311 85.784,30.157 85.216,31.415 C85.18,31.493 85.145,31.57 85.124,31.655 L76.223,53.592 C76.202,53.665 76.168,53.734 76.138,53.807 C75.565,55.059 74.246,55.911 72.611,55.911 L53.019,55.906 L81.509,3.374 C82.072,1.789 83.517,0.912 85.177,0.912 L134.56,0.917 C136.183,0.917 137.705,1.762 138.596,3.003 L138.61,3.024 C138.643,3.077 138.827,3.345 138.837,3.383 L152.711,29.316 Z M173.048,66.213 L159.69,41.694 C159.64,41.615 159.594,41.543 159.54,41.473 C158.614,40.218 157.019,39.364 155.314,39.364 L95.229,39.362 C93.515,39.362 92.146,40.211 91.554,41.468 C91.514,41.542 91.481,41.614 91.453,41.697 L82.34,63.27 C82.257,63.607 82.122,63.927 81.94,64.217 C81.31,65.233 80.121,65.918 78.688,65.987 C78.608,65.987 78.536,65.987 78.453,65.987 C78.38,65.987 78.305,65.987 78.223,65.987 L49.47,65.983 C47.946,65.978 46.546,66.788 45.726,68.263 L35.777,86.279 L93.377,86.894 C94.593,86.748 95.589,86.137 96.183,85.274 L96.69,84.072 L103.2,68.661 C103.209,68.643 103.212,68.633 103.219,68.619 C103.25,68.511 103.301,68.405 103.344,68.307 C103.351,68.298 103.354,68.284 103.367,68.277 C103.97,67.039 105.33,66.208 107.016,66.208 L173.048,66.213 Z" id="Shape"></path>
        </g>
    </g>
</svg>